<?xml version="1.0" standalone="no"?>
<svg version="1.0" xmlns="http://www.w3.org/2000/svg"
 width="352px" height="158px" viewBox="0 0 352.000000 158.000000"
 preserveAspectRatio="xMidYMid meet">
<metadata>
Created by potrace 1.16, written by Peter Selinger 2001-2019
</metadata>
<g transform="translate(0.000000,158.000000) scale(0.100000,-0.100000)"
fill="#000000" stroke="none">
<path d="M637 1094 c-4 -4 -7 -75 -8 -158 -1 -177 -14 -167 -26 19 l-8 120
-36 3 c-19 2 -47 -2 -63 -7 l-27 -11 7 -162 c7 -178 -1 -338 -18 -338 -8 0 -9
73 -5 243 4 133 3 248 -2 255 -5 9 -24 12 -52 10 l-44 -3 -12 -190 c-14 -217
-13 -455 2 -455 6 0 12 64 15 162 l6 163 2 -164 2 -163 68 7 c71 7 101 25 126
75 7 14 18 23 27 20 8 -2 46 -6 86 -8 l72 -4 3 -51 3 -52 54 -3 c74 -4 75 -3
79 112 2 35 4 38 26 32 15 -4 28 -1 33 6 4 7 20 19 35 27 24 12 43 55 31 73
-2 5 -28 8 -57 8 -47 0 -54 3 -59 22 -9 32 1 40 42 37 20 -2 41 0 47 4 10 5
26 64 28 102 1 6 -15 10 -34 10 -31 0 -35 3 -38 27 -5 39 14 68 44 68 13 0 27
6 29 13 8 22 -20 112 -36 112 -8 0 -16 9 -19 20 -5 17 -14 20 -65 20 l-60 0
-7 -75 c-4 -41 -7 -125 -8 -187 0 -62 -5 -115 -10 -118 -20 -12 -26 6 -20 55
6 48 5 52 -17 61 -33 12 -33 66 1 78 17 7 25 20 29 48 10 60 9 63 -22 63 -27
0 -30 3 -33 38 l-3 37 -50 3 c-28 2 -54 0 -58 -4z m61 -384 c41 0 43 -1 40
-27 -3 -28 -4 -28 -73 -28 -66 0 -70 1 -73 24 -4 28 14 43 43 36 11 -2 39 -5
63 -5z"/>
<path d="M1355 1090 c-3 -5 2 -54 10 -109 17 -103 15 -121 -11 -121 -22 0 -16
-145 6 -146 8 -1 20 -2 25 -2 6 -1 11 -26 13 -54 1 -29 5 -96 10 -148 l7 -95
65 0 65 0 -1 145 -2 145 -33 11 c-33 11 -33 11 36 23 39 6 88 13 111 15 56 4
61 9 60 58 l-1 43 -96 0 c-54 0 -100 3 -104 7 -4 4 -4 20 0 37 6 28 11 31 42
31 19 0 57 8 85 18 51 18 63 36 56 83 -3 21 -8 24 -48 23 -25 -1 -64 -5 -87
-9 -40 -7 -42 -7 -45 21 -3 29 -3 29 -81 31 -42 0 -79 -3 -82 -7z"/>
<path d="M1735 1090 c-11 -17 26 -129 40 -123 8 2 15 -9 19 -31 7 -35 8 -36
54 -36 l47 0 20 53 c11 28 21 56 24 61 2 4 -6 5 -17 2 -19 -6 -21 -2 -24 36
l-3 43 -60 0 c-55 0 -60 -2 -66 -25 -6 -23 -7 -23 -8 -3 -1 25 -16 38 -26 23z"/>
<path d="M1936 1093 c-10 -10 -7 -36 8 -65 11 -20 12 -37 4 -73 -5 -25 -7 -49
-3 -53 4 -4 77 -8 162 -9 86 -2 158 -5 161 -8 3 -3 -24 -5 -59 -5 -98 0 -109
-5 -109 -50 0 -48 -8 -70 -25 -70 -20 0 -26 31 -15 69 5 19 7 38 4 43 -3 5
-34 8 -67 6 l-62 -3 1 -73 c1 -40 3 -75 5 -76 2 -2 94 -7 205 -11 l201 -7 37
43 c32 38 37 49 34 89 l-3 45 -42 3 c-48 4 -53 11 -21 32 45 31 56 48 62 104
4 30 5 60 1 66 -4 6 -60 10 -140 10 l-134 0 -14 -30 c-9 -16 -12 -31 -9 -34 4
-2 40 -2 80 0 l72 3 0 -34 c0 -40 -6 -43 -110 -51 -57 -5 -80 -4 -80 5 0 11
21 14 110 15 38 1 45 4 45 21 0 18 -7 20 -60 21 -33 1 -66 2 -73 3 -9 1 -12
13 -10 39 l3 37 -60 0 -60 0 -6 -40 -6 -40 -2 37 c-1 36 -12 54 -25 41z m260
-309 c-5 -13 -10 -14 -18 -6 -6 6 -8 18 -4 28 5 13 10 14 18 6 6 -6 8 -18 4
-28z m94 22 c0 -2 -7 -9 -15 -16 -12 -10 -15 -10 -15 4 0 9 7 16 15 16 8 0 15
-2 15 -4z"/>
<path d="M2434 1086 c-3 -9 -2 -37 3 -64 l8 -47 325 0 325 0 3 25 c2 14 8 29
13 35 5 5 9 17 9 26 0 19 -55 23 -462 35 -194 5 -219 4 -224 -10z"/>
<path d="M1233 1073 c-18 -2 -33 -10 -34 -16 0 -7 0 -121 1 -254 1 -219 0
-243 -15 -243 -15 0 -16 24 -14 248 l2 247 -60 3 -60 3 -8 -108 c-4 -59 -8
-202 -9 -318 l-1 -210 105 3 c109 4 125 9 136 45 4 12 14 31 23 43 14 18 16
57 16 290 l0 269 -25 1 c-14 1 -40 -1 -57 -3z m-161 -415 l-9 -73 -3 78 c-3
96 -3 114 0 180 3 48 3 46 12 -30 5 -49 5 -111 0 -155z"/>
<path d="M2448 955 c-17 -18 8 -25 88 -25 l84 0 0 -185 0 -185 78 -1 c42 0
100 -4 127 -8 l50 -7 -75 -7 c-139 -13 -191 -12 -201 4 -5 8 -9 92 -9 187 l0
173 -56 -3 -56 -3 -2 -240 -1 -240 273 -3 c311 -3 308 -3 350 80 21 41 22 53
20 243 l-3 200 -54 -2 c-31 -2 -58 -8 -63 -15 -4 -7 -8 -93 -8 -190 l0 -178
-35 0 c-28 0 -35 4 -35 20 0 10 6 23 14 27 29 18 36 53 36 196 l0 144 -37 6
c-63 10 -477 20 -485 12z m308 -42 c-17 -59 -18 -93 -2 -99 13 -5 14 -9 5 -20
-6 -8 -18 -14 -26 -14 -11 0 -13 16 -12 75 2 67 4 75 21 75 14 0 18 -5 14 -17z
m109 -104 c10 -15 -1 -23 -20 -15 -9 3 -13 10 -10 16 8 13 22 13 30 -1z m-5
-108 c0 -23 -16 -36 -25 -21 -9 14 1 40 15 40 5 0 10 -9 10 -19z m-104 -22 c9
-15 -11 -33 -30 -26 -9 4 -13 13 -10 22 7 17 30 20 40 4z"/>
<path d="M1734 856 c-3 -8 1 -25 10 -38 9 -12 16 -31 16 -41 0 -11 5 -17 13
-14 7 2 18 -14 28 -42 14 -42 19 -46 50 -49 34 -3 35 -2 48 47 7 28 9 56 5 63
-4 7 -10 28 -14 48 l-5 35 -55 0 c-49 0 -55 -2 -61 -25 -6 -23 -7 -23 -8 -3
-1 27 -19 40 -27 19z"/>
<path d="M1577 704 c-8 -8 2 -137 15 -199 13 -62 23 -75 57 -75 34 0 51 17 51
51 0 15 5 40 10 54 8 20 7 30 -5 42 -8 8 -13 19 -9 24 3 5 -2 32 -11 59 -16
50 -17 50 -59 50 -24 0 -45 -3 -49 -6z"/>
<path d="M2441 680 c-12 -175 -12 -258 -2 -264 20 -13 23 22 14 157 -6 72 -11
121 -12 107z"/>
<path d="M1934 664 c-5 -18 -3 -29 4 -32 7 -2 12 -9 12 -17 0 -8 22 -15 63
-20 l62 -8 -65 -12 c-57 -10 -62 -13 -37 -19 39 -12 35 -36 -7 -36 -19 0 -42
-3 -52 -7 -15 -6 -16 -1 -11 43 4 27 10 61 13 76 6 26 5 26 -51 30 -37 2 -60
-1 -67 -10 -8 -9 -14 -9 -23 -2 -17 14 -32 -27 -16 -43 16 -16 14 -53 -4 -71
-19 -19 -19 -47 0 -92 14 -35 15 -35 72 -32 l58 3 10 43 c10 42 11 42 22 20 7
-13 13 -32 15 -43 3 -17 12 -20 67 -23 36 -2 69 2 74 7 6 6 20 11 32 11 11 0
29 7 39 15 17 13 22 13 42 0 13 -8 30 -15 39 -15 8 0 15 -5 15 -10 0 -7 28
-10 77 -8 l77 3 9 35 c15 64 14 65 -23 66 -19 0 -39 2 -44 2 -17 4 16 31 45
37 38 8 39 12 28 66 l-10 46 -137 7 c-75 3 -178 9 -229 13 l-92 6 -7 -29z m39
-9 c4 -8 2 -17 -3 -20 -6 -4 -10 3 -10 14 0 25 6 27 13 6z m202 -64 c3 -5 1
-13 -5 -16 -15 -9 -43 3 -35 15 8 13 32 13 40 1z"/>
</g>
</svg>
